HIERARCHY
ROOT Hips
{
	OFFSET 0.00000 0.00000 0.00000
	CHANNELS 6 Xposition Yposition Zposition Zrotation Yrotation Xrotation 
	JOINT LHipJoint
	{
		OFFSET 0 0 0
		CHANNELS 3 Zrotation Yrotation Xrotation
		JOINT LeftUpLeg
		{
			OFFSET 1.32989 -1.57253 0.78074
			CHANNELS 3 Zrotation Yrotation Xrotation
			JOINT LeftLeg
			{
				OFFSET 2.24323 -6.16323 0.00000
				CHANNELS 3 Zrotation Yrotation Xrotation
				JOINT LeftFoot
				{
					OFFSET 2.32677 -6.39275 0.00000
					CHANNELS 3 Zrotation Yrotation Xrotation
					JOINT LeftToeBase
					{
						OFFSET 0.18686 -0.51340 1.95973
						CHANNELS 3 Zrotation Yrotation Xrotation
						End Site
						{
							OFFSET 0.00000 -0.00000 1.02033
						}
					}
				}
			}
		}
	}
	JOINT RHipJoint
	{
		OFFSET 0 0 0
		CHANNELS 3 Zrotation Yrotation Xrotation
		JOINT RightUpLeg
		{
			OFFSET -1.27392 -1.57253 0.78074
			CHANNELS 3 Zrotation Yrotation Xrotation
			JOINT RightLeg
			{
				OFFSET -2.19978 -6.04385 0.00000
				CHANNELS 3 Zrotation Yrotation Xrotation
				JOINT RightFoot
				{
					OFFSET -2.29380 -6.30216 0.00000
					CHANNELS 3 Zrotation Yrotation Xrotation
					JOINT RightToeBase
					{
						OFFSET -0.24624 -0.67655 1.94854
						CHANNELS 3 Zrotation Yrotation Xrotation
						End Site
						{
							OFFSET -0.00000 -0.00000 1.03267
						}
					}
				}
			}
		}
	}
	JOINT LowerBack
	{
		OFFSET 0 0 0
		CHANNELS 3 Zrotation Yrotation Xrotation
		JOINT Spine
		{
			OFFSET -0.05982 2.08655 0.02100
			CHANNELS 3 Zrotation Yrotation Xrotation
			JOINT Spine1
			{
				OFFSET 0.04735 2.08455 -0.01795
				CHANNELS 3 Zrotation Yrotation Xrotation
				JOINT Neck
				{
					OFFSET 0 0 0
					CHANNELS 3 Zrotation Yrotation Xrotation
					JOINT Neck1
					{
						OFFSET -0.10038 1.43781 0.03084
						CHANNELS 3 Zrotation Yrotation Xrotation
						JOINT Head
						{
							OFFSET 0.07701 1.43632 -0.18495
							CHANNELS 3 Zrotation Yrotation Xrotation
							End Site
							{
								OFFSET 0.02744 1.45633 -0.07361
							}
						}
					}
				}
				JOINT LeftShoulder
				{
					OFFSET 0 0 0
					CHANNELS 3 Zrotation Yrotation Xrotation
					JOINT LeftArm
					{
						OFFSET 2.75061 0.74389 0.25227
						CHANNELS 3 Zrotation Yrotation Xrotation
						JOINT LeftForeArm
						{
							OFFSET 4.36901 -0.00000 0.00000
							CHANNELS 3 Zrotation Yrotation Xrotation
							JOINT LeftHand
							{
								OFFSET 3.21737 -0.00000 -0.00000
								CHANNELS 3 Zrotation Yrotation Xrotation
								JOINT LeftFingerBase
								{
									OFFSET 0 0 0
									CHANNELS 3 Zrotation Yrotation Xrotation
									JOINT LeftHandIndex1
									{
										OFFSET 0.56431 -0.00000 0.00000
										CHANNELS 3 Zrotation Yrotation Xrotation
										End Site
										{
											OFFSET 0.45496 -0.00000 0.00000
										}
									}
								}
								JOINT LThumb
								{
									OFFSET 0 0 0
									CHANNELS 3 Zrotation Yrotation Xrotation
									End Site
									{
										OFFSET 0.46191 -0.00000 0.46191
									}
								}
							}
						}
					}
				}
				JOINT RightShoulder
				{
					OFFSET 0 0 0
					CHANNELS 3 Zrotation Yrotation Xrotation
					JOINT RightArm
					{
						OFFSET -2.97379 0.79094 0.48377
						CHANNELS 3 Zrotation Yrotation Xrotation
						JOINT RightForeArm
						{
							OFFSET -4.34118 -0.00000 -0.00000
							CHANNELS 3 Zrotation Yrotation Xrotation
							JOINT RightHand
							{
								OFFSET -3.09531 -0.00000 0.00000
								CHANNELS 3 Zrotation Yrotation Xrotation
								JOINT RightFingerBase
								{
									OFFSET 0 0 0
									CHANNELS 3 Zrotation Yrotation Xrotation
									JOINT RightHandIndex1
									{
										OFFSET -0.59745 -0.00000 0.00000
										CHANNELS 3 Zrotation Yrotation Xrotation
										End Site
										{
											OFFSET -0.48168 -0.00000 0.00000
										}
									}
								}
								JOINT RThumb
								{
									OFFSET 0 0 0
									CHANNELS 3 Zrotation Yrotation Xrotation
									End Site
									{
										OFFSET -0.48903 -0.00000 0.48903
									}
								}
							}
						}
					}
				}
			}
		}
	}
}
MOTION
Frames: 6
Frame Time: 0.00588235
0.00 0.00 0.00 0 0 0 0 0 0 -21 0 0 0 0 0 0 0 0 0 0 0 0 0 0 21 0 0 0 0 0 0 0 0 0 0 0 0 0 0 0 0 0 0 0 0 0 0 -16 0 0 21 0 0 11 0 0 0 -8 0 0 0 0 0 0 0 0 0 0 0 0 0 0 0 0 0 0 0 0 8 0 0 0 0 0 0 0 0 0 0 0 0 0 0 0 0 0
0.00 0.00 0.00 1.6456 -1.2299 17.2067 0.0000 0.0000 0.0000 -18.9579 -8.9294 -41.7098 9.0349 16.8301 56.2108 1.1840 -3.3112 -19.7360 1.0149 -6.4096 -17.9775 0.0000 0.0000 0.0000 16.7936 10.7953 -40.1166 -8.2642 -16.3102 53.5090 -1.4832 3.4129 -22.1684 -0.5655 4.8162 -13.3850 -3.1591 -0.6606 4.4567 1.7190 -0.9743 7.7036 3.5563 -0.7203 5.5988 -4.9276 -3.8369 -13.2700 3.8106 -4.8276 13.7251 1.5623 -2.2673 6.5747 -0.0000 -0.0000 0.0000 -44.9521 50.0772 8.8356 32.9842 -43.3179 -13.4112 -0.0000 0.0000 -44.5997 29.4242 45.8251 22.0248 -7.1250 0.0000 -0.0000 -23.8363 78.8933 -18.9599 -0.0000 -0.0000 0.0000 48.1031 -48.2182 5.5066 -29.7604 40.6871 -11.2531 0.0000 -0.0000 -22.1691 -24.3984 23.6187 -10.2999 7.1250 -0.0000 -0.0000 2.9613 -4.3608 2.7313
0.00 0.00 0.00 0.2339 -3.2160 25.1872 0.0000 0.0000 0.0000 -11.6300 -16.6901 -61.0967 15.1592 19.4286 75.7157 0.9845 0.9241 -19.1053 2.5937 -10.0064 -28.9973 0.0000 0.0000 0.0000 11.5773 18.8141 -60.0963 -14.2808 -19.1970 73.0602 -1.1512 0.8881 -20.0110 -0.9872 6.3240 -17.7274 -2.2467 0.0381 9.1575 2.1720 -0.1209 6.8268 3.5229 -0.1908 1.9718 -6.9436 -3.6004 -12.2353 4.7176 -4.0941 4.6043 2.2855 -1.9314 3.5880 0.0000 -0.0000 0.0000 -83.5786 57.5922 -2.4690 46.3886 -51.4309 -23.3195 -0.0000 0.0000 -50.1533 12.4763 39.3178 7.9806 -7.1250 0.0000 -0.0000 -31.3220 67.4884 -17.6250 0.0000 -0.0000 0.0000 90.0873 -49.9451 -18.1778 -55.3569 54.9401 -30.5080 0.0000 -0.0000 -33.2266 -38.1046 29.4409 -21.0800 7.1250 -0.0000 -0.0000 -4.0738 5.5905 -4.4621
0.00 0.00 0.00 0.5966 -4.0690 28.3899 0.0000 0.0000 0.0000 -10.1143 -21.0136 -68.4777 19.1129 19.9811 87.4055 2.1531 4.3806 -29.5544 3.2320 -11.0615 -32.4877 0.0000 0.0000 0.0000 9.7192 21.2889 -66.5392 -17.7744 -19.8808 83.4803 -3.3120 2.4753 -33.8904 -0.7401 5.4959 -15.3286 -2.3024 0.2003 6.9981 2.3478 0.1347 4.6626 3.7100 -0.0174 0.8833 -5.4991 -3.3042 -8.1986 2.2494 -3.9569 -4.1802 1.5198 -1.9077 0.2319 0.0000 0.0000 0.0000 -89.0410 34.4712 16.7525 65.5617 -57.6185 -39.0051 -0.0000 0.0000 -48.3888 8.6775 33.8755 4.8624 -7.1250 0.0000 -0.0000 -28.6904 61.8486 -12.3116 0.0000 0.0000 0.0000 87.7890 -30.1508 11.4108 -84.9254 59.9025 -55.6067 0.0000 -0.0000 -29.0533 -40.6911 33.8767 -25.6082 7.1250 -0.0000 -0.0000 -4.3207 11.4394 -5.1048
0.00 0.00 0.00 1.5584 -1.6311 21.7645 0.0000 0.0000 0.0000 -14.1862 -21.8689 -61.2110 20.5731 19.9921 91.6757 2.9423 7.6118 -35.7223 3.3760 -11.2802 -33.2307 0.0000 0.0000 0.0000 12.5334 19.4189 -60.0685 -19.6418 -19.9969 88.9528 -4.4730 0.8783 -40.0050 -0.2318 3.0986 -8.5533 -1.6644 -0.2067 9.6323 1.8590 -0.3697 1.9235 2.9145 -0.1614 -3.3773 -5.1901 -3.0031 -5.5901 3.4695 -3.7133 -1.8515 1.8877 -1.8060 0.5424 0.0000 -0.0000 0.0000 -81.3152 -21.5262 36.6160 91.7394 -59.9886 -61.5063 -0.0000 0.0000 -67.4385 69.8801 40.5904 60.6187 -7.1250 0.0000 -0.0000 114.0383 -75.9692 -127.8141 0.0000 -0.0000 0.0000 77.5518 27.3086 36.5278 -95.3155 59.8930 -64.6017 0.0000 0.0000 2.6893 -59.3768 37.6326 -45.8886 7.1250 -0.0000 -0.0000 -12.3368 25.5440 -16.7174
0.00 0.00 0.00 1.1120 -0.8643 21.4839 0.0000 0.0000 0.0000 -14.6397 -20.1689 -59.0158 19.5462 19.9951 88.6730 2.8621 6.6012 -34.7761 2.9137 -10.5541 -30.7903 0.0000 0.0000 0.0000 14.1018 19.6636 -56.8504 -18.4673 -19.9436 85.5147 -4.3282 -0.6096 -39.7477 -0.2744 3.3696 -9.3095 -2.3361 -0.4854 7.9948 2.2745 -0.7610 0.4863 3.7658 -0.3177 -3.9198 -6.1062 -3.2686 -5.8071 5.1033 -3.9873 -2.7183 2.5881 -1.9189 0.3847 -0.0000 -0.0000 0.0000 -71.0111 -49.0071 33.0672 102.2119 -59.4289 -70.5556 -0.0000 0.0000 -78.4094 55.2788 41.4295 43.6772 -7.1250 0.0000 -0.0000 71.6273 81.7665 63.5643 -0.0000 -0.0000 0.0000 71.4128 55.4181 39.3823 -94.7476 59.9147 -64.1104 0.0000 -0.0000 -1.7750 -48.6514 37.4015 -34.6135 7.1250 -0.0000 -0.0000 -7.2312 18.8625 -9.2393
